# xmcd
#
# Track frame offsets:
#	150
#	12727
#	26697
#	51295
#	67000
#	87530
#	100442
#	115532
#	131372
#	143595
#	160935
#	177957
#	194287
#	211845
#
# Disc length: 3046
#
# Revision: 1
# Processed by: cddbd v1.5.1PL0 Copyright (c) Steve Scherf et al.
# Submitted via: VisiTrax 2.9.5.180 - For more info visit www.synapsa.com
# Normalized: r0:DSETVAR1
#
DISCID=c40be40e
DTITLE=Various Artist - Mr Music Country 6-02
DYEAR=2002
DGENRE=
TTITLE0=Larry Kingston - Good Morning Lovin'
TTITLE1=Ken Mellons - Shame On Me
TTITLE2=Gary Allan - What Would Willie Do
TTITLE3=LeAnn Rimes - Don't Worry
TTITLE4=Jason Ringenberg - Erin's Seed
TTITLE5=Joe Diamond - You'd Think I'd Learn
TTITLE6=Hank Williams Jr - Go Girl Go
TTITLE7=Hank Williams III - Cecil Brown
TTITLE8=Steve Holy - Tear One
TTITLE9=Georga Middleman - Rain On a River
TTITLE10=Tim McGraw - Senorita Margarita
TTITLE11=James Platte - L.O.V.E.
TTITLE12=Chely Wright - What If We Fly
TTITLE13=Hank Cochran - Way To Mexico
EXTD=
EXTT0=
EXTT1=
EXTT2=
EXTT3=
EXTT4=
EXTT5=
EXTT6=
EXTT7=
EXTT8=
EXTT9=
EXTT10=
EXTT11=
EXTT12=
EXTT13=
PLAYORDER=
